<svg width="95" height="40" viewBox="0 0 95 40" fill="none" xmlns="http://www.w3.org/2000/svg">
<g clip-path="url(#clip0_241_142)">
<mask id="mask0_241_142" style="mask-type:luminance" maskUnits="userSpaceOnUse" x="-16" y="-18" width="130" height="74">
<path d="M-15.0005 -17.3843H114V55.3851H-15.0005V-17.3843Z" fill="white"/>
</mask>
<g mask="url(#mask0_241_142)">
<path d="M48.0101 7.86065C46.0939 3.31393 41.3328 3.3508 39.9731 5.05349C39.9672 5.06112 39.9145 5.1391 39.9145 5.1391C39.6562 5.57457 39.7704 6.14185 40.1898 6.43662C40.6278 6.74749 41.2352 6.64281 41.5459 6.20161C41.6878 6.00263 41.7418 5.76275 41.7166 5.53622C41.6726 4.27536 44.4842 3.97848 45.9651 6.84518C46.208 7.31562 46.4022 7.83225 46.5488 8.36584C46.2623 8.5057 45.9818 8.64238 45.7171 8.77461C44.0242 9.60021 41.9364 10.7596 41.6798 12.5209C40.9265 13.1291 39.6885 13.978 39.1566 13.9215C38.6896 13.87 38.353 13.376 38.4552 12.398C38.5585 11.4194 38.8399 8.56927 38.8399 8.56927C38.9742 7.34317 38.7944 6.66379 37.5348 6.5252C36.3808 6.39763 35.0683 7.62882 34.1448 8.44C33.9649 8.59682 33.7561 8.77334 33.5496 8.96745C33.5756 8.78902 33.5948 8.62161 33.6211 8.46035C33.7886 7.38512 33.3837 6.39275 32.3803 6.60148C31.3545 6.81678 30.9608 7.67078 30.9608 7.67078C31.5213 7.48302 31.6925 8.05899 31.5479 9.11663L31.104 12.686C30.3468 13.2724 29.2742 13.974 28.7914 13.9215C28.324 13.87 27.9863 13.376 28.0895 12.398C28.1926 11.4194 28.4723 8.56927 28.4723 8.56927C28.6067 7.34317 28.4275 6.66379 27.1675 6.5252C26.0141 6.39763 24.7018 7.62882 23.7785 8.44C23.5963 8.59682 23.3898 8.77334 23.1843 8.96745C23.2087 8.78902 23.2281 8.62161 23.2539 8.46035C23.4238 7.38512 23.0159 6.39275 22.0142 6.60148C20.9881 6.81678 20.5939 7.67078 20.5939 7.67078C21.1552 7.48302 21.3251 8.05899 21.181 9.11663L20.7333 12.7115L20.7259 12.7778C19.9792 13.3455 18.9803 13.9842 18.5188 13.934C18.0544 13.882 17.7192 13.39 17.8212 12.419C17.9243 11.4438 18.1517 9.41479 18.1517 9.41479C18.3356 8.06005 17.5673 6.99754 16.4548 7.56927C16.0058 7.8011 15.8325 8.23721 15.8325 8.23721C16.2646 8.27196 16.3355 8.61822 16.2961 8.97719C16.2961 8.97719 15.9679 12.0539 15.9195 12.9399C15.8719 13.771 16.6105 14.5885 17.3498 14.6761C18.4985 14.8149 19.6847 14.0503 20.6628 13.2724L20.5577 14.117L22.4952 14.1062C22.5125 13.9547 23.1027 9.75659 23.1187 9.62458C24.0872 8.65933 25.4578 7.33024 26.1404 7.38512C26.5765 7.42094 26.6489 7.76974 26.6074 8.12892C26.6074 8.12892 26.3344 10.6689 26.1772 12.2209C26.0202 13.7757 26.8579 14.5824 27.6156 14.6676C28.8733 14.806 30.0397 13.988 31.0412 13.1793L30.9246 14.117L32.8632 14.1062C32.8778 13.9547 33.4696 9.75659 33.4854 9.62458C34.453 8.65933 35.8243 7.33024 36.508 7.38512C36.9428 7.42094 37.0149 7.76974 36.9743 8.12892C36.9743 8.12892 36.7001 10.6689 36.5425 12.2209C36.3867 13.7757 37.2252 14.5824 37.9829 14.6676C39.3485 14.8159 40.6062 13.8397 41.6646 12.9698C41.7395 14.1624 43.1332 14.7256 44.2233 14.7256C47.2566 14.7256 49.2464 12.1696 48.1205 8.23721C50.4198 7.28934 50.5004 7.79813 50.3083 9.17596L49.6833 14.1753L51.6216 14.166C51.6386 14.0149 52.2589 9.54405 52.2589 9.54405C53.2115 8.59682 54.477 7.40843 55.1236 7.46162C55.4952 7.49023 55.5885 7.71146 55.5828 7.99754L55.1606 14.1861H57.0992C57.1047 14.1342 57.3129 10.2453 57.3709 9.67183C58.3374 8.70701 59.6861 7.40377 60.3636 7.46162C60.7988 7.49489 60.8718 7.8456 60.8303 8.20563C60.8303 8.20563 60.5561 10.7445 60.4 12.2965C60.243 13.8511 61.0815 14.6589 61.839 14.7413C62.9851 14.8691 64.0536 14.1988 64.9933 13.4684C65.5978 14.2972 66.5652 14.8157 67.7583 14.8157C71.9088 14.8157 73.2067 11.678 73.1115 9.92252C73.0594 8.92973 72.7118 8.43555 72.6498 8.33426C72.8601 8.19419 73.4822 7.78669 73.9693 7.47985C74.7642 6.98059 74.7295 7.87845 74.5882 8.99097L73.9346 14.1516H75.9639C75.9808 13.9924 76.6336 9.27429 76.6336 9.27429C77.5971 8.31456 78.9225 7.04416 79.5892 7.09947C80.0247 7.13486 80.0979 7.48408 80.0562 7.84412C80.0562 7.84412 79.9026 9.28044 79.6258 11.9335C79.234 15.6922 81.5157 19.0797 86.1742 19.6843C87.993 19.9197 90.4337 19.4682 90.782 17.2086C90.7843 17.1952 90.7959 17.088 90.7959 17.088C90.8279 16.5053 90.4047 15.9852 89.8167 15.9106C89.1995 15.8307 88.6346 16.2669 88.5537 16.8854C88.5171 17.1681 88.5901 17.44 88.7385 17.6604C89.4691 18.9301 87.646 19.5839 86.225 19.288C83.2723 18.6697 81.0951 16.3414 81.5411 12.1147C81.7358 10.262 81.9222 8.28383 81.9222 8.28383C82.0576 7.05751 81.8769 6.3794 80.6169 6.24103C79.4637 6.11282 78.1513 7.34317 77.2266 8.15372C77.0679 8.2923 76.8839 8.45039 76.7025 8.61652C76.7218 8.48726 76.7377 8.35821 76.7578 8.23551C76.9334 7.10922 76.4897 5.73414 75.0712 6.39657C74.1379 6.83352 72.7406 7.8011 72.4308 8.01958C71.5146 6.85069 69.775 6.38089 67.8337 6.95325C65.8026 7.5538 64.2811 9.19715 64.3114 11.3249C64.3226 12.0043 64.4918 12.6284 64.7915 13.1546C64.126 13.6182 63.3914 14.0374 63.0131 13.996C62.5448 13.9443 62.2095 13.451 62.3106 12.4726C62.4138 11.4947 62.6944 8.64386 62.6944 8.64386C62.8292 7.41755 62.6504 6.74113 61.3889 6.60148C60.236 6.47349 58.925 7.70447 58.0008 8.51481C57.8241 8.66887 57.6189 8.842 57.4166 9.03187C57.4407 8.79135 57.4562 8.64386 57.4562 8.64386C57.5899 7.41755 57.4102 6.74113 56.1498 6.60148C54.9954 6.47349 53.6842 7.70447 52.7604 8.51481C52.6265 8.63199 52.4786 8.75723 52.3269 8.89285C52.3453 8.76486 52.3609 8.6392 52.3798 8.51947C52.5482 7.44255 52.1419 6.45061 51.1407 6.65934C50.5635 6.78034 49.0657 7.36902 48.0101 7.86065ZM44.5586 14.2109C43.6609 14.2109 43.14 13.4644 43.14 12.6059C43.14 10.9636 44.5438 9.75087 45.9098 9.0859L46.6472 8.7602C47.2312 11.3561 46.6565 14.2109 44.5586 14.2109ZM68.8129 14.1897C66.7023 14.1897 66.1939 12.035 66.1939 10.2756C66.1939 8.86446 66.6632 7.3758 68.4616 7.3758C70.5716 7.3758 71.0815 9.49171 71.0815 11.252C71.0815 12.6619 70.6095 14.1897 68.8129 14.1897Z" fill="#62206F"/>
<path d="M16.1741 3.10934C15.0104 3.98918 16.0912 5.49586 17.2118 5.41025C18.2052 5.33459 18.6209 4.5215 18.5945 3.98134C18.4504 1.11655 15.6194 0.236703 13.3683 0.236703C7.59365 0.236703 4.16699 4.54036 4.16699 8.65351C4.16699 11.8735 6.88504 15.2975 11.1075 15.2975C12.2117 15.2975 13.3772 15.0669 14.3928 14.3702V13.834C13.1893 14.5041 12.5078 14.7779 11.0912 14.6096C7.44977 14.1761 6.16035 10.2068 6.99739 6.83152C7.83655 3.44988 9.67016 1.01483 13.3683 0.727484C15.1441 0.590803 18.1734 1.59567 16.1741 3.10934Z" fill="#62206F"/>
<path d="M23.0693 21.3961H24.1355V28.155H27.7175V29.1047H23.0693V21.3961Z" fill="#62206F"/>
<path d="M30.2654 26.2327H33.176L31.7581 22.4531L30.2654 26.2327ZM31.2353 21.3961H32.3762L35.489 29.1047H34.3274L33.4955 27.0975H29.9243L29.0928 29.1047H27.9946L31.2353 21.3961Z" fill="#62206F"/>
<path d="M36.48 21.3961H37.5462V24.7701L40.7549 21.3961H42.2153L38.7721 24.8447L42.5885 29.1047H41.096L37.5462 25.0157V29.1047H36.48V21.3961Z" fill="#62206F"/>
<path d="M43.3027 21.3961H48.1322V22.3143H44.3689V24.7059H47.9509V25.6029H44.3689V28.1653H48.2175V29.1047H43.3027V21.3961Z" fill="#62206F"/>
<path d="M50.6056 26.8518C50.613 26.9862 50.6305 27.1398 50.6589 27.313C50.6875 27.4863 50.7602 27.6505 50.8777 27.8061C50.9949 27.9616 51.1777 28.0943 51.4263 28.2034C51.6754 28.3132 52.02 28.3681 52.4608 28.3681C52.8586 28.3681 53.1764 28.3147 53.4148 28.2081C53.6529 28.1015 53.834 27.9735 53.9588 27.8245C54.083 27.6751 54.1647 27.524 54.2036 27.371C54.2425 27.2184 54.2624 27.0922 54.2624 26.9928C54.2624 26.7794 54.2214 26.6037 54.1397 26.4651C54.058 26.3265 53.9387 26.211 53.7828 26.1186C53.6262 26.026 53.4398 25.9478 53.2229 25.8838C53.0062 25.8201 52.7627 25.7561 52.4927 25.6921C52.2012 25.6209 51.9472 25.5573 51.7302 25.5001C51.5135 25.4435 51.3235 25.3903 51.1599 25.3403C50.9968 25.2905 50.8546 25.2392 50.7336 25.1858C50.613 25.1322 50.5027 25.0739 50.4031 25.0097C50.0906 24.7965 49.8788 24.555 49.7687 24.2848C49.6587 24.0148 49.6037 23.7518 49.6037 23.4961C49.6037 23.1051 49.689 22.7673 49.8595 22.4831C50.0301 22.199 50.2522 21.9661 50.5256 21.7849C50.7994 21.6037 51.1121 21.4687 51.464 21.3797C51.8159 21.2909 52.1728 21.2464 52.5352 21.2464C52.6633 21.2464 52.8194 21.2534 53.0046 21.2678C53.1893 21.282 53.3812 21.3159 53.5803 21.3693C53.779 21.4225 53.9762 21.4992 54.1717 21.5986C54.367 21.6984 54.543 21.8336 54.6996 22.0044C54.8062 22.1256 54.8896 22.2466 54.9499 22.3674C55.0102 22.4886 55.0565 22.606 55.0887 22.7198C55.1204 22.8338 55.1403 22.9426 55.1473 23.0455C55.1543 23.149 55.1613 23.2396 55.1682 23.3176H54.0595C54.0453 23.0758 53.9886 22.8783 53.8892 22.7251C53.7895 22.5721 53.6634 22.453 53.5107 22.3674C53.3579 22.282 53.1893 22.2233 53.0046 22.1915C52.8194 22.1593 52.6311 22.1432 52.4394 22.1432C51.9062 22.1432 51.4887 22.2553 51.1868 22.4795C50.8844 22.7039 50.7336 23.008 50.7336 23.3922C50.7336 23.5632 50.7621 23.7095 50.8189 23.8302C50.8758 23.9512 50.9613 24.0547 51.0747 24.1401C51.1887 24.2252 51.3326 24.2981 51.5067 24.3587C51.6806 24.4193 51.8853 24.478 52.1195 24.5348C52.5744 24.656 52.9404 24.7523 53.2176 24.8232C53.4948 24.8947 53.7168 24.9565 53.8841 25.0101C54.0508 25.0633 54.1841 25.1153 54.2838 25.1651C54.383 25.2149 54.4895 25.2752 54.6037 25.3464C54.781 25.4674 54.9215 25.599 55.0248 25.7414C55.1274 25.8838 55.2038 26.0263 55.2539 26.1684C55.3034 26.3111 55.3356 26.446 55.3498 26.5742C55.364 26.7025 55.3709 26.8057 55.3709 26.8838C55.3709 27.2254 55.3053 27.5422 55.174 27.8343C55.0421 28.1263 54.849 28.3803 54.5929 28.5976C54.3371 28.8145 54.0189 28.9839 53.6387 29.1046C53.2587 29.2256 52.823 29.2863 52.3328 29.2863C52.1838 29.2863 52.0037 29.2774 51.7943 29.2596C51.5848 29.2418 51.3679 29.2026 51.1441 29.1419C50.9202 29.0818 50.7016 28.9928 50.4884 28.8749C50.2751 28.7575 50.0942 28.6028 49.9448 28.4106C49.8384 28.2685 49.7546 28.1244 49.6945 27.9781C49.6335 27.8323 49.5893 27.6919 49.561 27.5564C49.5328 27.4215 49.5144 27.2933 49.5076 27.1723C49.5002 27.051 49.4971 26.9445 49.4971 26.8518H50.6056Z" fill="#62206F"/>
<path d="M56.8418 21.3961H57.908V29.1047H56.8418V21.3961Z" fill="#62206F"/>
<path d="M60.7652 28.2295H61.81C62.1799 28.2295 62.5436 28.2064 62.9026 28.1602C63.2617 28.1138 63.5691 27.9947 63.825 27.802C64.0666 27.617 64.2566 27.407 64.3954 27.1725C64.534 26.9372 64.6349 26.7044 64.699 26.4732C64.7631 26.2418 64.8021 26.0265 64.8162 25.8273C64.8306 25.6281 64.8376 25.471 64.8376 25.357C64.8376 25.286 64.8325 25.1581 64.822 24.9728C64.811 24.7881 64.7824 24.5795 64.7367 24.3481C64.6901 24.1172 64.6154 23.8771 64.5126 23.6277C64.4098 23.3784 64.2691 23.1542 64.0916 22.9551C63.8429 22.6844 63.5567 22.5047 63.2329 22.4155C62.9096 22.327 62.5138 22.2822 62.0445 22.2822H60.7652V28.2295ZM59.6992 21.396H61.9272C62.1833 21.396 62.4499 21.4013 62.7268 21.4121C63.0042 21.4227 63.2776 21.46 63.5478 21.5242C63.8178 21.5882 64.0789 21.6881 64.3313 21.8232C64.5839 21.9584 64.8162 22.1506 65.0295 22.3999C65.3708 22.8054 65.6139 23.2594 65.7597 23.7609C65.9055 24.2627 65.9785 24.7806 65.9785 25.3147C65.9785 25.7347 65.9393 26.1116 65.8611 26.4463C65.783 26.7811 65.6816 27.0799 65.5574 27.343C65.433 27.6067 65.2961 27.8326 65.1467 28.0212C64.9976 28.2098 64.8482 28.3613 64.699 28.4751C64.5071 28.6315 64.3046 28.7527 64.0916 28.8379C63.8783 28.9235 63.6544 28.9858 63.42 29.025C63.1853 29.0642 62.9382 29.0871 62.6792 29.0943C62.4194 29.1015 62.1473 29.1049 61.8631 29.1049H59.6992V21.396Z" fill="#62206F"/>
<path d="M67.1611 21.3961H71.9904V22.3143H68.2271V24.7059H71.8093V25.6029H68.2271V28.1653H72.0761V29.1047H67.1611V21.3961Z" fill="#62206F"/>
<path d="M34.068 34.6536C34.0566 34.603 34.0371 34.5182 34.009 34.4C33.9809 34.2815 33.9231 34.1631 33.8357 34.0444C33.7481 33.9259 33.6188 33.8219 33.4472 33.7316C33.2752 33.6416 33.0431 33.596 32.7503 33.596C32.3842 33.596 32.0874 33.6793 31.8593 33.8456C31.631 34.0122 31.4547 34.2222 31.3309 34.4761C31.2072 34.7299 31.1242 35.0033 31.0819 35.2966C31.0396 35.5901 31.0184 35.8634 31.0184 36.1175C31.0184 36.4051 31.0426 36.6914 31.0902 36.9762C31.138 37.261 31.2268 37.5176 31.3563 37.746C31.4858 37.9745 31.6617 38.1593 31.8845 38.3002C32.1068 38.4413 32.3927 38.5119 32.7416 38.5119C32.9278 38.5119 33.1064 38.4852 33.2784 38.4316C33.4502 38.3779 33.6006 38.2834 33.7303 38.148C33.8427 38.0296 33.9176 37.9111 33.954 37.7926C33.9904 37.6742 34.0145 37.5782 34.0259 37.5051H34.955C34.9212 37.8041 34.8327 38.0605 34.689 38.2747C34.5454 38.4894 34.3679 38.6655 34.1567 38.8037C33.9457 38.9418 33.7102 39.0435 33.4515 39.1082C33.1923 39.173 32.9331 39.2054 32.6743 39.2054C32.139 39.2054 31.704 39.1012 31.3692 38.8922C31.0341 38.6837 30.7736 38.4229 30.5876 38.1099C30.4019 37.7969 30.2764 37.4627 30.2117 37.1073C30.1467 36.752 30.1147 36.425 30.1147 36.1258C30.1147 35.9117 30.13 35.6831 30.1609 35.4407C30.1922 35.1982 30.2468 34.9584 30.3257 34.7215C30.4044 34.4845 30.5087 34.2576 30.6384 34.0406C30.7677 33.8232 30.931 33.6316 31.128 33.465C31.3254 33.2987 31.5605 33.166 31.8339 33.0675C32.1068 32.9688 32.4236 32.9192 32.7841 32.9192C32.998 32.9192 33.2274 32.9446 33.4724 32.9955C33.7174 33.0463 33.9468 33.1366 34.1609 33.2663C34.3753 33.396 34.5566 33.5735 34.7058 33.7992C34.8551 34.0247 34.9436 34.3097 34.9719 34.6536H34.068Z" fill="#62206F"/>
<path d="M36.4595 36.9887C36.4595 37.2089 36.4834 37.4189 36.5312 37.6189C36.579 37.8194 36.6552 37.9969 36.7591 38.1521C36.8634 38.3074 36.9959 38.4314 37.1563 38.5244C37.3166 38.6176 37.5098 38.664 37.7352 38.664C37.8871 38.664 38.0392 38.6344 38.1913 38.5752C38.3435 38.5159 38.4795 38.4201 38.601 38.2873C38.722 38.155 38.8219 37.9802 38.9008 37.7628C38.9797 37.5458 39.0191 37.2765 39.0191 36.955C39.0191 36.4248 38.9063 36.0228 38.6812 35.7492C38.456 35.4757 38.1575 35.339 37.7859 35.339C37.6562 35.339 37.5155 35.3631 37.3632 35.4108C37.2111 35.4589 37.0676 35.5435 36.9326 35.6647C36.7972 35.7861 36.6846 35.9537 36.5947 36.1682C36.5044 36.3826 36.4595 36.656 36.4595 36.9887ZM35.6313 37.0397C35.6313 36.7802 35.6654 36.5149 35.7329 36.2442C35.8004 35.9734 35.9172 35.7282 36.0835 35.5081C36.2496 35.2881 36.4707 35.1078 36.7464 34.9666C37.0225 34.8259 37.3689 34.7549 37.7859 34.7549C38.2081 34.7549 38.5542 34.83 38.825 34.9794C39.095 35.129 39.3075 35.315 39.4628 35.5375C39.6174 35.7605 39.723 36.0018 39.7795 36.261C39.8358 36.5206 39.8637 36.7602 39.8637 36.9802C39.8637 37.2904 39.8201 37.5839 39.733 37.8603C39.6456 38.1366 39.5131 38.378 39.336 38.5835C39.1585 38.7895 38.9346 38.9531 38.6642 39.0743C38.3938 39.1955 38.0784 39.2561 37.7184 39.2561C37.3689 39.2561 37.0634 39.1983 36.8014 39.0828C36.5397 38.9671 36.3213 38.8107 36.147 38.6132C35.9722 38.4159 35.8425 38.1815 35.7583 37.9111C35.6737 37.6403 35.6313 37.3498 35.6313 37.0397Z" fill="#62206F"/>
<path d="M41.0381 33.0123H41.8322V39.1125H41.0381V33.0123Z" fill="#62206F"/>
<path d="M43.8001 36.9887C43.8001 37.2089 43.8242 37.4189 43.872 37.6189C43.9199 37.8194 43.9958 37.9969 44.0999 38.1521C44.2042 38.3074 44.3365 38.4314 44.4971 38.5244C44.6577 38.6176 44.8504 38.664 45.076 38.664C45.2279 38.664 45.3798 38.6344 45.5319 38.5752C45.6841 38.5159 45.8203 38.4201 45.9416 38.2873C46.0626 38.155 46.1627 37.9802 46.2416 37.7628C46.3205 37.5458 46.3599 37.2765 46.3599 36.955C46.3599 36.4248 46.2469 36.0228 46.0218 35.7492C45.7966 35.4757 45.4979 35.339 45.1265 35.339C44.9968 35.339 44.8561 35.3631 44.7042 35.4108C44.5523 35.4589 44.4084 35.5435 44.2734 35.6647C44.138 35.7861 44.0254 35.9537 43.9355 36.1682C43.8452 36.3826 43.8001 36.656 43.8001 36.9887ZM42.9722 37.0397C42.9722 36.7802 43.006 36.5149 43.0735 36.2442C43.1412 35.9734 43.258 35.7282 43.4245 35.5081C43.5902 35.2881 43.8113 35.1078 44.0872 34.9666C44.3631 34.8259 44.7095 34.7549 45.1265 34.7549C45.5491 34.7549 45.895 34.83 46.1657 34.9794C46.4361 35.129 46.6483 35.315 46.8034 35.5375C46.9585 35.7605 47.0636 36.0018 47.1201 36.261C47.1764 36.5206 47.2045 36.7602 47.2045 36.9802C47.2045 37.2904 47.161 37.5839 47.0738 37.8603C46.9864 38.1366 46.8542 38.378 46.6766 38.5835C46.4991 38.7895 46.2755 38.9531 46.0051 39.0743C45.7349 39.1955 45.4194 39.2561 45.0591 39.2561C44.7095 39.2561 44.4042 39.1983 44.1422 39.0828C43.8805 38.9671 43.6622 38.8107 43.4876 38.6132C43.3128 38.4159 43.1835 38.1815 43.0989 37.9111C43.0147 37.6403 42.9722 37.3498 42.9722 37.0397Z" fill="#62206F"/>
<path d="M48.3541 35.432L48.3374 34.8651H49.1397V35.4829C49.2413 35.3137 49.3507 35.1813 49.4692 35.0851C49.5875 34.9893 49.7072 34.9175 49.8285 34.8694C49.9493 34.8217 50.0661 34.7905 50.1788 34.7763C50.2914 34.7624 50.3928 34.7552 50.4831 34.7552C50.7199 34.7552 50.9164 34.7821 51.0739 34.8355C51.2321 34.8891 51.3644 34.9554 51.4712 35.0345C51.5781 35.1135 51.6614 35.1993 51.7205 35.2926C51.7797 35.3854 51.8292 35.4716 51.8684 35.5505C51.9022 35.4941 51.9528 35.4208 52.0205 35.3305C52.0882 35.2404 52.1769 35.1529 52.2865 35.0681C52.3963 34.9836 52.533 34.9105 52.6963 34.8484C52.8597 34.7863 53.0596 34.7552 53.2962 34.7552C53.4483 34.7552 53.6142 34.7749 53.7947 34.8143C53.9745 34.8539 54.1434 34.9287 54.3014 35.0387C54.459 35.1487 54.59 35.3023 54.6943 35.4996C54.7982 35.6973 54.8505 35.951 54.8505 36.2612V39.1124H54.0477V36.3881C54.0477 36.2019 54.0338 36.0624 54.0058 35.9692C53.9775 35.8762 53.944 35.8016 53.904 35.7452C53.8366 35.6492 53.7356 35.5632 53.6002 35.4869C53.465 35.4108 53.2962 35.3729 53.0932 35.3729C52.9638 35.3729 52.8497 35.3894 52.7511 35.4235C52.6525 35.4574 52.5655 35.4968 52.4894 35.5422C52.4134 35.5871 52.3514 35.635 52.3034 35.6856C52.2556 35.7365 52.2177 35.7816 52.1896 35.8211C52.1443 35.8889 52.1089 35.9652 52.0838 36.0499C52.0586 36.1343 52.0404 36.2203 52.029 36.3078C52.0175 36.3951 52.0108 36.4769 52.008 36.5532C52.0048 36.6291 52.0034 36.6899 52.0034 36.735V39.1124H51.2012V36.3034C51.2012 36.0385 51.1253 35.817 50.9731 35.6395C50.8208 35.4617 50.5872 35.3729 50.2717 35.3729C50.1367 35.3729 50.0168 35.3911 49.9129 35.4278C49.8084 35.4646 49.7186 35.5081 49.6425 35.5589C49.5663 35.6098 49.503 35.6604 49.4523 35.7113C49.4019 35.7619 49.3651 35.8041 49.3427 35.838C49.2523 35.9622 49.199 36.1033 49.1821 36.2612C49.1653 36.4193 49.1567 36.5657 49.1567 36.7011V39.1124H48.3541V35.432Z" fill="#62206F"/>
<path d="M59.4288 36.9463C59.4288 36.8391 59.4186 36.694 59.3989 36.5107C59.3793 36.3274 59.3287 36.1453 59.2474 35.965C59.166 35.7844 59.0466 35.6281 58.8896 35.4952C58.7326 35.363 58.5164 35.2964 58.2416 35.2964C58.0395 35.2964 57.8698 35.3318 57.7318 35.4022C57.5945 35.4727 57.4811 35.563 57.3912 35.673C57.3015 35.7832 57.231 35.9057 57.1811 36.0411C57.1301 36.1765 57.0937 36.3064 57.0711 36.4301C57.0491 36.5543 57.0357 36.667 57.0334 36.7686C57.0306 36.8701 57.0292 36.9436 57.0292 36.9885C57.0292 37.0337 57.0306 37.1057 57.0334 37.2044C57.0357 37.3032 57.0491 37.4117 57.0711 37.5299C57.0937 37.6484 57.1286 37.7713 57.1764 37.898C57.2242 38.0252 57.2915 38.1392 57.3787 38.2409C57.4655 38.3424 57.5763 38.427 57.7111 38.4946C57.8461 38.5624 58.0113 38.5961 58.2077 38.5961C58.4491 38.5961 58.6497 38.5424 58.8097 38.4354C58.9696 38.3282 59.0945 38.1932 59.1844 38.0292C59.2741 37.8658 59.3369 37.688 59.3735 37.4962C59.4099 37.3045 59.4288 37.1212 59.4288 36.9463ZM57.0459 35.4827C57.074 35.4318 57.1163 35.3657 57.1728 35.2839C57.2293 35.2023 57.3108 35.122 57.4181 35.0428C57.5249 34.9639 57.6601 34.8957 57.8237 34.8398C57.9866 34.7832 58.1895 34.755 58.4313 34.755C58.6455 34.755 58.8736 34.7904 59.1158 34.8607C59.3581 34.9315 59.5777 35.0765 59.7749 35.2964C59.8255 35.3587 59.8803 35.4333 59.9398 35.5206C59.9986 35.6081 60.0534 35.7154 60.1044 35.8421C60.1551 35.969 60.1956 36.1184 60.2269 36.2905C60.2576 36.4628 60.2732 36.6643 60.2732 36.8957C60.2732 37.3074 60.2324 37.6331 60.1507 37.8728C60.0688 38.1127 59.9747 38.3028 59.8676 38.4439C59.6985 38.6863 59.4819 38.8681 59.2172 38.9898C58.9527 39.111 58.6736 39.1714 58.381 39.1714C58.2794 39.1714 58.1413 39.1574 57.9671 39.1292C57.7924 39.101 57.615 39.0247 57.4348 38.9006C57.3165 38.8219 57.2293 38.7457 57.1728 38.6723C57.1163 38.599 57.0658 38.5312 57.0209 38.4693L57.004 39.1123H56.2349L56.2522 38.3509V33.0038H57.0459V35.4827Z" fill="#62206F"/>
<path d="M61.8443 36.9887C61.8443 37.2089 61.868 37.4189 61.916 37.6189C61.9634 37.8194 62.0396 37.9969 62.1441 38.1521C62.2482 38.3074 62.3806 38.4314 62.5408 38.5244C62.7018 38.6176 62.8942 38.664 63.1197 38.664C63.2716 38.664 63.4238 38.6344 63.5759 38.5752C63.7278 38.5159 63.8643 38.4201 63.9855 38.2873C64.1066 38.155 64.2064 37.9802 64.2853 37.7628C64.3638 37.5458 64.4038 37.2765 64.4038 36.955C64.4038 36.4248 64.2908 36.0228 64.0657 35.7492C63.8406 35.4757 63.5418 35.339 63.1703 35.339C63.0404 35.339 62.8999 35.3631 62.748 35.4108C62.5962 35.4589 62.4522 35.5435 62.317 35.6647C62.1822 35.7861 62.0692 35.9537 61.9793 36.1682C61.8889 36.3826 61.8443 36.656 61.8443 36.9887ZM61.0161 37.0397C61.0161 36.7802 61.0498 36.5149 61.1177 36.2442C61.1852 35.9734 61.302 35.7282 61.4683 35.5081C61.6344 35.2881 61.8555 35.1078 62.131 34.9666C62.4071 34.8259 62.7537 34.7549 63.1703 34.7549C63.5928 34.7549 63.939 34.83 64.2094 34.9794C64.4796 35.129 64.6922 35.315 64.8473 35.5375C65.0022 35.7605 65.1078 36.0018 65.1641 36.261C65.2201 36.5206 65.2485 36.7602 65.2485 36.9802C65.2485 37.2904 65.2047 37.5839 65.1177 37.8603C65.0303 38.1366 64.8979 38.378 64.7206 38.5835C64.5431 38.7895 64.3192 38.9531 64.049 39.0743C63.7786 39.1955 63.4631 39.2561 63.1026 39.2561C62.7537 39.2561 62.4481 39.1983 62.186 39.0828C61.9242 38.9671 61.7063 38.8107 61.5313 38.6132C61.357 38.4159 61.2277 38.1815 61.1431 37.9111C61.0584 37.6403 61.0161 37.3498 61.0161 37.0397Z" fill="#62206F"/>
</g>
</g>
<defs>
<clipPath id="clip0_241_142">
<rect width="94.6" height="40" fill="white"/>
</clipPath>
</defs>
</svg>
